<svg width="460" height="33" viewBox="0 0 460 33" fill="none" xmlns="http://www.w3.org/2000/svg">
<path opacity="0.8" d="M7.14844 9.95668C7.09162 9.45241 6.85724 9.06179 6.44531 8.7848C6.03338 8.50426 5.51492 8.36399 4.88992 8.36399C4.44247 8.36399 4.0554 8.43501 3.72869 8.57706C3.40199 8.71555 3.14808 8.90732 2.96697 9.15234C2.78942 9.39382 2.70064 9.66903 2.70064 9.97798C2.70064 10.2372 2.76101 10.4609 2.88175 10.6491C3.00604 10.8374 3.16761 10.9954 3.36648 11.1232C3.56889 11.2475 3.78551 11.3523 4.01634 11.4375C4.24716 11.5192 4.46911 11.5866 4.68217 11.6399L5.74751 11.9169C6.09553 12.0021 6.45241 12.1175 6.81818 12.2631C7.18395 12.4087 7.52308 12.6005 7.83558 12.8384C8.14808 13.0763 8.40021 13.3711 8.59197 13.7227C8.78729 14.0742 8.88494 14.495 8.88494 14.9851C8.88494 15.603 8.72514 16.1516 8.40554 16.631C8.08949 17.1104 7.62962 17.4886 7.02592 17.7656C6.42578 18.0426 5.69957 18.1811 4.8473 18.1811C4.03054 18.1811 3.32386 18.0515 2.72727 17.7923C2.13068 17.533 1.66371 17.1655 1.32635 16.6896C0.988991 16.2102 0.802557 15.642 0.767046 14.9851H2.41832C2.45028 15.3793 2.57813 15.7077 2.80185 15.9705C3.02912 16.2298 3.31854 16.4233 3.6701 16.5511C4.02521 16.6754 4.41406 16.7376 4.83665 16.7376C5.30185 16.7376 5.71555 16.6648 6.07777 16.5192C6.44354 16.37 6.73118 16.1641 6.9407 15.9013C7.15021 15.6349 7.25497 15.3242 7.25497 14.9691C7.25497 14.646 7.16264 14.3814 6.97798 14.1754C6.79688 13.9695 6.55007 13.799 6.23757 13.6641C5.92862 13.5291 5.57884 13.4102 5.18821 13.3072L3.89915 12.9556C3.02557 12.7177 2.3331 12.3679 1.82173 11.9062C1.31392 11.4446 1.06001 10.8338 1.06001 10.0739C1.06001 9.44531 1.23047 8.89666 1.57138 8.42791C1.91229 7.95916 2.37393 7.59517 2.95632 7.33594C3.53871 7.07315 4.19567 6.94176 4.9272 6.94176C5.66584 6.94176 6.31747 7.07138 6.8821 7.33061C7.45028 7.58984 7.89773 7.94673 8.22443 8.40128C8.55114 8.85227 8.72159 9.37074 8.7358 9.95668H7.14844ZM14.1704 18.1651C13.4033 18.1651 12.7339 17.9893 12.1622 17.6378C11.5905 17.2862 11.1466 16.7944 10.8305 16.1623C10.5145 15.5302 10.3564 14.7915 10.3564 13.9464C10.3564 13.0977 10.5145 12.3555 10.8305 11.7198C11.1466 11.0842 11.5905 10.5906 12.1622 10.239C12.7339 9.88743 13.4033 9.71165 14.1704 9.71165C14.9374 9.71165 15.6068 9.88743 16.1785 10.239C16.7503 10.5906 17.1942 11.0842 17.5102 11.7198C17.8263 12.3555 17.9843 13.0977 17.9843 13.9464C17.9843 14.7915 17.8263 15.5302 17.5102 16.1623C17.1942 16.7944 16.7503 17.2862 16.1785 17.6378C15.6068 17.9893 14.9374 18.1651 14.1704 18.1651ZM14.1757 16.8281C14.6729 16.8281 15.0848 16.6967 15.4115 16.4339C15.7382 16.1712 15.9797 15.8214 16.1359 15.3846C16.2957 14.9478 16.3756 14.4666 16.3756 13.9411C16.3756 13.419 16.2957 12.9396 16.1359 12.5028C15.9797 12.0625 15.7382 11.7092 15.4115 11.4428C15.0848 11.1765 14.6729 11.0433 14.1757 11.0433C13.675 11.0433 13.2595 11.1765 12.9292 11.4428C12.6025 11.7092 12.3593 12.0625 12.1995 12.5028C12.0432 12.9396 11.9651 13.419 11.9651 13.9411C11.9651 14.4666 12.0432 14.9478 12.1995 15.3846C12.3593 15.8214 12.6025 16.1712 12.9292 16.4339C13.2595 16.6967 13.675 16.8281 14.1757 16.8281ZM23.2085 18.1651C22.4165 18.1651 21.7347 17.9858 21.163 17.6271C20.5948 17.2649 20.158 16.766 19.8526 16.1303C19.5472 15.4947 19.3945 14.7667 19.3945 13.9464C19.3945 13.1154 19.5508 12.3821 19.8633 11.7464C20.1758 11.1072 20.6161 10.6083 21.1843 10.2496C21.7525 9.89098 22.4219 9.71165 23.1925 9.71165C23.8139 9.71165 24.3679 9.82706 24.8544 10.0579C25.3409 10.2852 25.7333 10.6048 26.0316 11.0167C26.3335 11.4286 26.5128 11.9098 26.5696 12.4602H25.0195C24.9343 12.0767 24.739 11.7464 24.4336 11.4695C24.1317 11.1925 23.7269 11.054 23.2191 11.054C22.7752 11.054 22.3864 11.1712 22.0526 11.4055C21.7223 11.6364 21.4648 11.9666 21.2802 12.3963C21.0955 12.8224 21.0032 13.3267 21.0032 13.9091C21.0032 14.5057 21.0938 15.0206 21.2749 15.4538C21.456 15.8871 21.7116 16.2227 22.0419 16.4606C22.3757 16.6985 22.7681 16.8175 23.2191 16.8175C23.521 16.8175 23.7944 16.7624 24.0394 16.6523C24.288 16.5387 24.4957 16.3771 24.6626 16.1676C24.8331 15.9581 24.9521 15.706 25.0195 15.4112H26.5696C26.5128 15.9403 26.3406 16.4126 26.0529 16.8281C25.7653 17.2436 25.38 17.5703 24.897 17.8082C24.4176 18.0462 23.8548 18.1651 23.2085 18.1651ZM28.2728 18V9.81818H29.8655V18H28.2728ZM29.0771 8.55575C28.8002 8.55575 28.5622 8.46342 28.3634 8.27876C28.1681 8.09055 28.0704 7.86683 28.0704 7.6076C28.0704 7.34482 28.1681 7.12109 28.3634 6.93643C28.5622 6.74822 28.8002 6.65412 29.0771 6.65412C29.3541 6.65412 29.5903 6.74822 29.7856 6.93643C29.9845 7.12109 30.0839 7.34482 30.0839 7.6076C30.0839 7.86683 29.9845 8.09055 29.7856 8.27876C29.5903 8.46342 29.3541 8.55575 29.0771 8.55575ZM34.3892 18.1811C33.8707 18.1811 33.402 18.0852 32.983 17.8935C32.5639 17.6982 32.2319 17.4158 31.9869 17.0465C31.7454 16.6772 31.6246 16.2244 31.6246 15.6882C31.6246 15.2266 31.7134 14.8466 31.891 14.5483C32.0685 14.25 32.3082 14.0138 32.6101 13.8398C32.9119 13.6658 33.2493 13.5344 33.6222 13.4457C33.995 13.3569 34.375 13.2894 34.7621 13.2433C35.2521 13.1864 35.6499 13.1403 35.9553 13.1048C36.2607 13.0657 36.4826 13.0036 36.6211 12.9183C36.7596 12.8331 36.8288 12.6946 36.8288 12.5028V12.4656C36.8288 12.0004 36.6974 11.6399 36.4347 11.3842C36.1754 11.1286 35.7884 11.0007 35.2734 11.0007C34.7372 11.0007 34.3146 11.1197 34.0057 11.3576C33.7003 11.592 33.489 11.853 33.3718 12.1406L31.875 11.7997C32.0526 11.3026 32.3118 10.9013 32.6527 10.5959C32.9972 10.2869 33.3931 10.0632 33.8406 9.92472C34.288 9.78267 34.7585 9.71165 35.2521 9.71165C35.5788 9.71165 35.9251 9.75071 36.2908 9.82884C36.6602 9.90341 37.0046 10.0419 37.3242 10.2443C37.6474 10.4467 37.9119 10.7362 38.1179 11.1126C38.3239 11.4854 38.4268 11.9702 38.4268 12.5668V18H36.8714V16.8814H36.8075C36.7045 17.0874 36.5501 17.2898 36.3441 17.4886C36.1381 17.6875 35.8736 17.8526 35.5504 17.984C35.2273 18.1154 34.8402 18.1811 34.3892 18.1811ZM34.7354 16.9027C35.1758 16.9027 35.5522 16.8157 35.8647 16.6417C36.1808 16.4677 36.4205 16.2404 36.5838 15.9599C36.7507 15.6758 36.8342 15.3722 36.8342 15.049V13.9943C36.7773 14.0511 36.6673 14.1044 36.5039 14.1541C36.3441 14.2003 36.1612 14.2411 35.9553 14.2766C35.7493 14.3086 35.5487 14.3388 35.3533 14.3672C35.158 14.392 34.9947 14.4134 34.8633 14.4311C34.5543 14.4702 34.272 14.5359 34.0163 14.6282C33.7642 14.7205 33.5618 14.8537 33.4091 15.0277C33.2599 15.1982 33.1854 15.4254 33.1854 15.7095C33.1854 16.1037 33.331 16.402 33.6222 16.6044C33.9134 16.8033 34.2844 16.9027 34.7354 16.9027ZM42.1409 7.09091V18H40.5482V7.09091H42.1409ZM48.3811 7.09091H50.3786L53.8517 15.571H53.9795L57.4525 7.09091H59.45V18H57.884V10.1058H57.7828L54.5654 17.984H53.2657L50.0484 10.1005H49.9472V18H48.3811V7.09091ZM65.2415 18.1651C64.4354 18.1651 63.7411 17.9929 63.1587 17.6484C62.5799 17.3004 62.1325 16.8121 61.8164 16.1836C61.5039 15.5515 61.3477 14.8111 61.3477 13.9624C61.3477 13.1243 61.5039 12.3857 61.8164 11.7464C62.1325 11.1072 62.5728 10.6083 63.1374 10.2496C63.7056 9.89098 64.3697 9.71165 65.1296 9.71165C65.5913 9.71165 66.0387 9.788 66.4719 9.9407C66.9052 10.0934 67.294 10.3331 67.6385 10.6598C67.983 10.9865 68.2546 11.4109 68.4535 11.9329C68.6523 12.4513 68.7518 13.0817 68.7518 13.8239V14.3885H62.2479V13.1953H67.1911C67.1911 12.7763 67.1058 12.4052 66.9354 12.082C66.7649 11.7553 66.5252 11.4979 66.2163 11.3097C65.9109 11.1214 65.5522 11.0273 65.1403 11.0273C64.6928 11.0273 64.3022 11.1374 63.9684 11.3576C63.6381 11.5742 63.3825 11.8583 63.2013 12.2099C63.0238 12.5579 62.935 12.9361 62.935 13.3445V14.2766C62.935 14.8235 63.0309 15.2887 63.2227 15.6722C63.418 16.0558 63.6896 16.3487 64.0376 16.5511C64.3857 16.75 64.7923 16.8494 65.2575 16.8494C65.5593 16.8494 65.8345 16.8068 66.0831 16.7216C66.3317 16.6328 66.5465 16.5014 66.7276 16.3274C66.9087 16.1534 67.0472 15.9386 67.1431 15.6829L68.6506 15.9545C68.5298 16.3984 68.3132 16.7873 68.0007 17.1211C67.6918 17.4513 67.3029 17.7088 66.8342 17.8935C66.369 18.0746 65.8381 18.1651 65.2415 18.1651ZM73.5818 18.1598C72.9213 18.1598 72.3318 17.9911 71.8133 17.6538C71.2984 17.3129 70.8936 16.8281 70.5988 16.1996C70.3076 15.5675 70.162 14.8093 70.162 13.9251C70.162 13.0408 70.3094 12.2844 70.6041 11.6559C70.9024 11.0273 71.3108 10.5462 71.8293 10.2124C72.3477 9.87855 72.9355 9.71165 73.5924 9.71165C74.1002 9.71165 74.5086 9.79688 74.8176 9.96733C75.1301 10.1342 75.3715 10.3295 75.542 10.5533C75.716 10.777 75.8509 10.9741 75.9468 11.1445H76.0427V7.09091H77.6354V18H76.08V16.7269H75.9468C75.8509 16.9009 75.7124 17.0998 75.5313 17.3235C75.3538 17.5472 75.1088 17.7425 74.7963 17.9094C74.4838 18.0763 74.0789 18.1598 73.5818 18.1598ZM73.9333 16.8015C74.3914 16.8015 74.7785 16.6808 75.0945 16.4393C75.4142 16.1942 75.6556 15.8551 75.819 15.4219C75.9859 14.9886 76.0693 14.4844 76.0693 13.9091C76.0693 13.3409 75.9877 12.8437 75.8243 12.4176C75.661 11.9915 75.4213 11.6594 75.1052 11.4215C74.7892 11.1836 74.3985 11.0646 73.9333 11.0646C73.4539 11.0646 73.0544 11.1889 72.7348 11.4375C72.4152 11.6861 72.1737 12.0252 72.0104 12.4549C71.8506 12.8846 71.7707 13.3693 71.7707 13.9091C71.7707 14.456 71.8524 14.9478 72.0157 15.3846C72.1791 15.8214 72.4205 16.1676 72.7401 16.4233C73.0633 16.6754 73.461 16.8015 73.9333 16.8015ZM79.9086 18V9.81818H81.5012V18H79.9086ZM80.7129 8.55575C80.4359 8.55575 80.198 8.46342 79.9991 8.27876C79.8038 8.09055 79.7061 7.86683 79.7061 7.6076C79.7061 7.34482 79.8038 7.12109 79.9991 6.93643C80.198 6.74822 80.4359 6.65412 80.7129 6.65412C80.9899 6.65412 81.226 6.74822 81.4213 6.93643C81.6202 7.12109 81.7196 7.34482 81.7196 7.6076C81.7196 7.86683 81.6202 8.09055 81.4213 8.27876C81.226 8.46342 80.9899 8.55575 80.7129 8.55575ZM86.0249 18.1811C85.5065 18.1811 85.0377 18.0852 84.6187 17.8935C84.1997 17.6982 83.8676 17.4158 83.6226 17.0465C83.3811 16.6772 83.2604 16.2244 83.2604 15.6882C83.2604 15.2266 83.3492 14.8466 83.5267 14.5483C83.7043 14.25 83.944 14.0138 84.2458 13.8398C84.5477 13.6658 84.885 13.5344 85.2579 13.4457C85.6308 13.3569 86.0107 13.2894 86.3978 13.2433C86.8879 13.1864 87.2856 13.1403 87.591 13.1048C87.8964 13.0657 88.1183 13.0036 88.2568 12.9183C88.3953 12.8331 88.4646 12.6946 88.4646 12.5028V12.4656C88.4646 12.0004 88.3332 11.6399 88.0704 11.3842C87.8112 11.1286 87.4241 11.0007 86.9092 11.0007C86.373 11.0007 85.9504 11.1197 85.6414 11.3576C85.336 11.592 85.1247 11.853 85.0075 12.1406L83.5107 11.7997C83.6883 11.3026 83.9475 10.9013 84.2884 10.5959C84.6329 10.2869 85.0289 10.0632 85.4763 9.92472C85.9237 9.78267 86.3943 9.71165 86.8879 9.71165C87.2146 9.71165 87.5608 9.75071 87.9266 9.82884C88.2959 9.90341 88.6404 10.0419 88.96 10.2443C89.2831 10.4467 89.5477 10.7362 89.7536 11.1126C89.9596 11.4854 90.0626 11.9702 90.0626 12.5668V18H88.5072V16.8814H88.4433C88.3403 17.0874 88.1858 17.2898 87.9798 17.4886C87.7739 17.6875 87.5093 17.8526 87.1862 17.984C86.863 18.1154 86.4759 18.1811 86.0249 18.1811ZM86.3712 16.9027C86.8115 16.9027 87.1879 16.8157 87.5004 16.6417C87.8165 16.4677 88.0562 16.2404 88.2195 15.9599C88.3865 15.6758 88.4699 15.3722 88.4699 15.049V13.9943C88.4131 14.0511 88.303 14.1044 88.1396 14.1541C87.9798 14.2003 87.797 14.2411 87.591 14.2766C87.385 14.3086 87.1844 14.3388 86.9891 14.3672C86.7938 14.392 86.6304 14.4134 86.499 14.4311C86.1901 14.4702 85.9078 14.5359 85.6521 14.6282C85.3999 14.7205 85.1975 14.8537 85.0448 15.0277C84.8957 15.1982 84.8211 15.4254 84.8211 15.7095C84.8211 16.1037 84.9667 16.402 85.2579 16.6044C85.5491 16.8033 85.9202 16.9027 86.3712 16.9027Z" fill="white"/>
<path d="M0 29.5C0 27.567 1.567 26 3.5 26H456.5C458.433 26 460 27.567 460 29.5C460 31.433 458.433 33 456.5 33H3.50001C1.56701 33 0 31.433 0 29.5Z" fill="white" fill-opacity="0.3"/>
<path d="M0 29.5C0 27.567 1.567 26 3.5 26H96.5C98.433 26 100 27.567 100 29.5C100 31.433 98.433 33 96.5 33H3.5C1.56701 33 0 31.433 0 29.5Z" fill="white"/>
</svg>
