<svg width="460" height="33" viewBox="0 0 460 33" fill="none" xmlns="http://www.w3.org/2000/svg">
<path opacity="0.8" d="M2.84446 7.09091V18H1.19851V7.09091H2.84446ZM6.70632 13.142V18H5.11364V9.81818H6.6424V11.1499H6.74361C6.93182 10.7166 7.22656 10.3686 7.62784 10.1058C8.03267 9.84304 8.54226 9.71165 9.15661 9.71165C9.71413 9.71165 10.2024 9.82884 10.6214 10.0632C11.0405 10.294 11.3654 10.6385 11.5962 11.0966C11.8271 11.5547 11.9425 12.1211 11.9425 12.7958V18H10.3498V12.9876C10.3498 12.3945 10.1953 11.9311 9.88636 11.5973C9.57741 11.2599 9.15305 11.0913 8.61328 11.0913C8.24396 11.0913 7.91548 11.1712 7.62784 11.331C7.34375 11.4908 7.11825 11.7251 6.95135 12.0341C6.788 12.3395 6.70632 12.7088 6.70632 13.142ZM17.8977 9.81818V11.0966H13.4286V9.81818H17.8977ZM14.6271 7.85795H16.2198V15.5977C16.2198 15.9066 16.266 16.1392 16.3583 16.2955C16.4506 16.4482 16.5696 16.5529 16.7152 16.6097C16.8643 16.663 17.0259 16.6896 17.1999 16.6896C17.3278 16.6896 17.4396 16.6808 17.5355 16.663C17.6314 16.6452 17.706 16.631 17.7592 16.6204L18.0469 17.9361C17.9545 17.9716 17.8232 18.0071 17.6527 18.0426C17.4822 18.0817 17.2692 18.103 17.0135 18.1065C16.5945 18.1136 16.2038 18.0391 15.8416 17.8828C15.4794 17.7266 15.1864 17.4851 14.9627 17.1584C14.739 16.8317 14.6271 16.4215 14.6271 15.9279V7.85795ZM23.0979 18.1651C22.2918 18.1651 21.5976 17.9929 21.0152 17.6484C20.4363 17.3004 19.9889 16.8121 19.6729 16.1836C19.3604 15.5515 19.2041 14.8111 19.2041 13.9624C19.2041 13.1243 19.3604 12.3857 19.6729 11.7464C19.9889 11.1072 20.4292 10.6083 20.9939 10.2496C21.5621 9.89098 22.2261 9.71165 22.9861 9.71165C23.4477 9.71165 23.8952 9.788 24.3284 9.9407C24.7616 10.0934 25.1505 10.3331 25.4949 10.6598C25.8394 10.9865 26.1111 11.4109 26.3099 11.9329C26.5088 12.4513 26.6082 13.0817 26.6082 13.8239V14.3885H20.1043V13.1953H25.0475C25.0475 12.7763 24.9623 12.4052 24.7918 12.082C24.6214 11.7553 24.3817 11.4979 24.0727 11.3097C23.7673 11.1214 23.4086 11.0273 22.9967 11.0273C22.5493 11.0273 22.1586 11.1374 21.8248 11.3576C21.4946 11.5742 21.2389 11.8583 21.0578 12.2099C20.8802 12.5579 20.7915 12.9361 20.7915 13.3445V14.2766C20.7915 14.8235 20.8873 15.2887 21.0791 15.6722C21.2744 16.0558 21.5461 16.3487 21.8941 16.5511C22.2421 16.75 22.6487 16.8494 23.1139 16.8494C23.4157 16.8494 23.691 16.8068 23.9395 16.7216C24.1881 16.6328 24.403 16.5014 24.5841 16.3274C24.7652 16.1534 24.9037 15.9386 24.9996 15.6829L26.507 15.9545C26.3863 16.3984 26.1697 16.7873 25.8572 17.1211C25.5482 17.4513 25.1594 17.7088 24.6906 17.8935C24.2254 18.0746 23.6945 18.1651 23.0979 18.1651ZM28.3754 18V9.81818H29.9148V11.1179H30C30.1491 10.6776 30.4119 10.3313 30.7884 10.0792C31.1683 9.82351 31.598 9.69567 32.0774 9.69567C32.1768 9.69567 32.294 9.69922 32.429 9.70632C32.5675 9.71342 32.6758 9.7223 32.7539 9.73295V11.2564C32.69 11.2386 32.5763 11.2191 32.413 11.1978C32.2496 11.1729 32.0863 11.1605 31.9229 11.1605C31.5465 11.1605 31.2109 11.2404 30.9162 11.4002C30.625 11.5565 30.3942 11.7749 30.2237 12.0554C30.0533 12.3324 29.968 12.6484 29.968 13.0036V18H28.3754ZM35.7249 13.142V18H34.1322V9.81818H35.661V11.1499H35.7622C35.9504 10.7166 36.2451 10.3686 36.6464 10.1058C37.0512 9.84304 37.5608 9.71165 38.1752 9.71165C38.7327 9.71165 39.221 9.82884 39.64 10.0632C40.059 10.294 40.384 10.6385 40.6148 11.0966C40.8456 11.5547 40.961 12.1211 40.961 12.7958V18H39.3683V12.9876C39.3683 12.3945 39.2139 11.9311 38.9049 11.5973C38.596 11.2599 38.1716 11.0913 37.6318 11.0913C37.2625 11.0913 36.934 11.1712 36.6464 11.331C36.3623 11.4908 36.1368 11.7251 35.9699 12.0341C35.8066 12.3395 35.7249 12.7088 35.7249 13.142ZM46.6233 18.1651C45.8172 18.1651 45.123 17.9929 44.5406 17.6484C43.9617 17.3004 43.5143 16.8121 43.1982 16.1836C42.8857 15.5515 42.7295 14.8111 42.7295 13.9624C42.7295 13.1243 42.8857 12.3857 43.1982 11.7464C43.5143 11.1072 43.9546 10.6083 44.5193 10.2496C45.0874 9.89098 45.7515 9.71165 46.5115 9.71165C46.9731 9.71165 47.4205 9.788 47.8538 9.9407C48.287 10.0934 48.6759 10.3331 49.0203 10.6598C49.3648 10.9865 49.6365 11.4109 49.8353 11.9329C50.0342 12.4513 50.1336 13.0817 50.1336 13.8239V14.3885H43.6297V13.1953H48.5729C48.5729 12.7763 48.4877 12.4052 48.3172 12.082C48.1468 11.7553 47.907 11.4979 47.5981 11.3097C47.2927 11.1214 46.934 11.0273 46.5221 11.0273C46.0747 11.0273 45.684 11.1374 45.3502 11.3576C45.02 11.5742 44.7643 11.8583 44.5832 12.2099C44.4056 12.5579 44.3169 12.9361 44.3169 13.3445V14.2766C44.3169 14.8235 44.4127 15.2887 44.6045 15.6722C44.7998 16.0558 45.0715 16.3487 45.4195 16.5511C45.7675 16.75 46.1741 16.8494 46.6393 16.8494C46.9411 16.8494 47.2164 16.8068 47.4649 16.7216C47.7135 16.6328 47.9284 16.5014 48.1095 16.3274C48.2906 16.1534 48.4291 15.9386 48.5249 15.6829L50.0324 15.9545C49.9117 16.3984 49.695 16.7873 49.3825 17.1211C49.0736 17.4513 48.6847 17.7088 48.216 17.8935C47.7508 18.0746 47.2199 18.1651 46.6233 18.1651ZM55.72 9.81818V11.0966H51.2509V9.81818H55.72ZM52.4494 7.85795H54.0421V15.5977C54.0421 15.9066 54.0882 16.1392 54.1806 16.2955C54.2729 16.4482 54.3919 16.5529 54.5375 16.6097C54.6866 16.663 54.8482 16.6896 55.0222 16.6896C55.15 16.6896 55.2619 16.6808 55.3578 16.663C55.4537 16.6452 55.5282 16.631 55.5815 16.6204L55.8691 17.9361C55.7768 17.9716 55.6454 18.0071 55.475 18.0426C55.3045 18.0817 55.0914 18.103 54.8358 18.1065C54.4167 18.1136 54.0261 18.0391 53.6639 17.8828C53.3017 17.7266 53.0087 17.4851 52.785 17.1584C52.5613 16.8317 52.4494 16.4215 52.4494 15.9279V7.85795Z" fill="white"/>
<path d="M0 29.5C0 27.567 1.567 26 3.5 26H456.5C458.433 26 460 27.567 460 29.5V29.5C460 31.433 458.433 33 456.5 33H3.50001C1.56701 33 0 31.433 0 29.5V29.5Z" fill="white" fill-opacity="0.3"/>
<path d="M0 29.5C0 27.567 1.567 26 3.5 26H226.5C228.433 26 230 27.567 230 29.5C230 31.433 228.433 33 226.5 33H3.49999C1.567 33 0 31.433 0 29.5Z" fill="white"/>
</svg>
