<svg width="460" height="33" viewBox="0 0 460 33" fill="none" xmlns="http://www.w3.org/2000/svg">
<path opacity="0.8" d="M10.6747 12.5455C10.6747 13.7102 10.4616 14.7116 10.0355 15.5497C9.60938 16.3842 9.02521 17.027 8.28303 17.478C7.54439 17.9254 6.70455 18.1491 5.76349 18.1491C4.81889 18.1491 3.9755 17.9254 3.23331 17.478C2.49467 17.027 1.91229 16.3825 1.48615 15.5444C1.06001 14.7063 0.846946 13.7067 0.846946 12.5455C0.846946 11.3807 1.06001 10.381 1.48615 9.54652C1.91229 8.70845 2.49467 8.0657 3.23331 7.61825C3.9755 7.16726 4.81889 6.94176 5.76349 6.94176C6.70455 6.94176 7.54439 7.16726 8.28303 7.61825C9.02521 8.0657 9.60938 8.70845 10.0355 9.54652C10.4616 10.381 10.6747 11.3807 10.6747 12.5455ZM9.04474 12.5455C9.04474 11.6577 8.90092 10.9102 8.61328 10.3029C8.32919 9.69212 7.93857 9.23047 7.44141 8.91797C6.9478 8.60192 6.38849 8.44389 5.76349 8.44389C5.13494 8.44389 4.57386 8.60192 4.08026 8.91797C3.58665 9.23047 3.19602 9.69212 2.90838 10.3029C2.62429 10.9102 2.48224 11.6577 2.48224 12.5455C2.48224 13.4332 2.62429 14.1825 2.90838 14.7933C3.19602 15.4006 3.58665 15.8622 4.08026 16.1783C4.57386 16.4908 5.13494 16.647 5.76349 16.647C6.38849 16.647 6.9478 16.4908 7.44141 16.1783C7.93857 15.8622 8.32919 15.4006 8.61328 14.7933C8.90092 14.1825 9.04474 13.4332 9.04474 12.5455ZM14.1917 13.142V18H12.599V9.81818H14.1278V11.1499H14.229C14.4172 10.7166 14.7119 10.3686 15.1132 10.1058C15.518 9.84304 16.0276 9.71165 16.642 9.71165C17.1995 9.71165 17.6878 9.82884 18.1068 10.0632C18.5258 10.294 18.8508 10.6385 19.0816 11.0966C19.3124 11.5547 19.4278 12.1211 19.4278 12.7958V18H17.8351V12.9876C17.8351 12.3945 17.6807 11.9311 17.3717 11.5973C17.0628 11.2599 16.6384 11.0913 16.0986 11.0913C15.7293 11.0913 15.4008 11.1712 15.1132 11.331C14.8291 11.4908 14.6036 11.7251 14.4367 12.0341C14.2733 12.3395 14.1917 12.7088 14.1917 13.142ZM23.1565 7.09091V18H21.5638V7.09091H23.1565ZM25.2992 18V9.81818H26.8919V18H25.2992ZM26.1035 8.55575C25.8265 8.55575 25.5886 8.46342 25.3897 8.27876C25.1944 8.09055 25.0968 7.86683 25.0968 7.6076C25.0968 7.34482 25.1944 7.12109 25.3897 6.93643C25.5886 6.74822 25.8265 6.65412 26.1035 6.65412C26.3805 6.65412 26.6167 6.74822 26.812 6.93643C27.0108 7.12109 27.1103 7.34482 27.1103 7.6076C27.1103 7.86683 27.0108 8.09055 26.812 8.27876C26.6167 8.46342 26.3805 8.55575 26.1035 8.55575ZM30.6272 13.142V18H29.0345V9.81818H30.5633V11.1499H30.6645C30.8527 10.7166 31.1475 10.3686 31.5487 10.1058C31.9536 9.84304 32.4632 9.71165 33.0775 9.71165C33.635 9.71165 34.1233 9.82884 34.5423 10.0632C34.9614 10.294 35.2863 10.6385 35.5171 11.0966C35.748 11.5547 35.8634 12.1211 35.8634 12.7958V18H34.2707V12.9876C34.2707 12.3945 34.1162 11.9311 33.8073 11.5973C33.4983 11.2599 33.074 11.0913 32.5342 11.0913C32.1649 11.0913 31.8364 11.1712 31.5487 11.331C31.2646 11.4908 31.0392 11.7251 30.8722 12.0341C30.7089 12.3395 30.6272 12.7088 30.6272 13.142ZM41.5257 18.1651C40.7195 18.1651 40.0253 17.9929 39.4429 17.6484C38.8641 17.3004 38.4166 16.8121 38.1006 16.1836C37.7881 15.5515 37.6318 14.8111 37.6318 13.9624C37.6318 13.1243 37.7881 12.3857 38.1006 11.7464C38.4166 11.1072 38.857 10.6083 39.4216 10.2496C39.9898 9.89098 40.6539 9.71165 41.4138 9.71165C41.8754 9.71165 42.3229 9.788 42.7561 9.9407C43.1894 10.0934 43.5782 10.3331 43.9227 10.6598C44.2671 10.9865 44.5388 11.4109 44.7377 11.9329C44.9365 12.4513 45.036 13.0817 45.036 13.8239V14.3885H38.532V13.1953H43.4752C43.4752 12.7763 43.39 12.4052 43.2195 12.082C43.0491 11.7553 42.8094 11.4979 42.5004 11.3097C42.195 11.1214 41.8364 11.0273 41.4244 11.0273C40.977 11.0273 40.5864 11.1374 40.2526 11.3576C39.9223 11.5742 39.6666 11.8583 39.4855 12.2099C39.308 12.5579 39.2192 12.9361 39.2192 13.3445V14.2766C39.2192 14.8235 39.3151 15.2887 39.5068 15.6722C39.7021 16.0558 39.9738 16.3487 40.3218 16.5511C40.6698 16.75 41.0764 16.8494 41.5416 16.8494C41.8435 16.8494 42.1187 16.8068 42.3673 16.7216C42.6159 16.6328 42.8307 16.5014 43.0118 16.3274C43.1929 16.1534 43.3314 15.9386 43.4273 15.6829L44.9347 15.9545C44.814 16.3984 44.5974 16.7873 44.2849 17.1211C43.9759 17.4513 43.5871 17.7088 43.1183 17.8935C42.6531 18.0746 42.1222 18.1651 41.5257 18.1651ZM56.8506 9.95668C56.7938 9.45241 56.5594 9.06179 56.1475 8.7848C55.7355 8.50426 55.2171 8.36399 54.5921 8.36399C54.1446 8.36399 53.7575 8.43501 53.4308 8.57706C53.1041 8.71555 52.8502 8.90732 52.6691 9.15234C52.4916 9.39382 52.4028 9.66903 52.4028 9.97798C52.4028 10.2372 52.4632 10.4609 52.5839 10.6491C52.7082 10.8374 52.8698 10.9954 53.0686 11.1232C53.271 11.2475 53.4877 11.3523 53.7185 11.4375C53.9493 11.5192 54.1713 11.5866 54.3843 11.6399L55.4497 11.9169C55.7977 12.0021 56.1546 12.1175 56.5203 12.2631C56.8861 12.4087 57.2252 12.6005 57.5377 12.8384C57.8502 13.0763 58.1024 13.3711 58.2941 13.7227C58.4894 14.0742 58.5871 14.495 58.5871 14.9851C58.5871 15.603 58.4273 16.1516 58.1077 16.631C57.7916 17.1104 57.3318 17.4886 56.7281 17.7656C56.1279 18.0426 55.4017 18.1811 54.5494 18.1811C53.7327 18.1811 53.026 18.0515 52.4294 17.7923C51.8328 17.533 51.3659 17.1655 51.0285 16.6896C50.6911 16.2102 50.5047 15.642 50.4692 14.9851H52.1205C52.1524 15.3793 52.2803 15.7077 52.504 15.9705C52.7313 16.2298 53.0207 16.4233 53.3722 16.5511C53.7274 16.6754 54.1162 16.7376 54.5388 16.7376C55.004 16.7376 55.4177 16.6648 55.7799 16.5192C56.1457 16.37 56.4333 16.1641 56.6428 15.9013C56.8524 15.6349 56.9571 15.3242 56.9571 14.9691C56.9571 14.646 56.8648 14.3814 56.6801 14.1754C56.499 13.9695 56.2522 13.799 55.9397 13.6641C55.6308 13.5291 55.281 13.4102 54.8904 13.3072L53.6013 12.9556C52.7277 12.7177 52.0352 12.3679 51.5239 11.9062C51.0161 11.4446 50.7622 10.8338 50.7622 10.0739C50.7622 9.44531 50.9326 8.89666 51.2735 8.42791C51.6144 7.95916 52.0761 7.59517 52.6585 7.33594C53.2409 7.07315 53.8978 6.94176 54.6294 6.94176C55.368 6.94176 56.0196 7.07138 56.5843 7.33061C57.1524 7.58984 57.5999 7.94673 57.9266 8.40128C58.2533 8.85227 58.4237 9.37074 58.4379 9.95668H56.8506ZM62.0188 13.142V18H60.4261V7.09091H61.9975V11.1499H62.0987C62.2905 10.7095 62.5835 10.3597 62.9776 10.1005C63.3718 9.84126 63.8867 9.71165 64.5224 9.71165C65.0835 9.71165 65.5735 9.82706 65.9925 10.0579C66.4151 10.2887 66.7418 10.6332 66.9727 11.0913C67.207 11.5458 67.3242 12.114 67.3242 12.7958V18H65.7315V12.9876C65.7315 12.3874 65.5771 11.9222 65.2681 11.592C64.9592 11.2582 64.5295 11.0913 63.979 11.0913C63.6026 11.0913 63.2653 11.1712 62.967 11.331C62.6722 11.4908 62.4396 11.7251 62.2692 12.0341C62.1023 12.3395 62.0188 12.7088 62.0188 13.142ZM72.896 18.1651C72.1289 18.1651 71.4595 17.9893 70.8878 17.6378C70.3161 17.2862 69.8722 16.7944 69.5561 16.1623C69.2401 15.5302 69.082 14.7915 69.082 13.9464C69.082 13.0977 69.2401 12.3555 69.5561 11.7198C69.8722 11.0842 70.3161 10.5906 70.8878 10.239C71.4595 9.88743 72.1289 9.71165 72.896 9.71165C73.663 9.71165 74.3324 9.88743 74.9041 10.239C75.4759 10.5906 75.9197 11.0842 76.2358 11.7198C76.5518 12.3555 76.7099 13.0977 76.7099 13.9464C76.7099 14.7915 76.5518 15.5302 76.2358 16.1623C75.9197 16.7944 75.4759 17.2862 74.9041 17.6378C74.3324 17.9893 73.663 18.1651 72.896 18.1651ZM72.9013 16.8281C73.3984 16.8281 73.8104 16.6967 74.1371 16.4339C74.4638 16.1712 74.7053 15.8214 74.8615 15.3846C75.0213 14.9478 75.1012 14.4666 75.1012 13.9411C75.1012 13.419 75.0213 12.9396 74.8615 12.5028C74.7053 12.0625 74.4638 11.7092 74.1371 11.4428C73.8104 11.1765 73.3984 11.0433 72.9013 11.0433C72.4006 11.0433 71.9851 11.1765 71.6548 11.4428C71.3281 11.7092 71.0849 12.0625 70.9251 12.5028C70.7688 12.9396 70.6907 13.419 70.6907 13.9411C70.6907 14.4666 70.7688 14.9478 70.9251 15.3846C71.0849 15.8214 71.3281 16.1712 71.6548 16.4339C71.9851 16.6967 72.4006 16.8281 72.9013 16.8281ZM78.4877 21.0682V9.81818H80.0431V11.1445H80.1762C80.2686 10.9741 80.4017 10.777 80.5757 10.5533C80.7497 10.3295 80.9912 10.1342 81.3002 9.96733C81.6091 9.79688 82.0175 9.71165 82.5253 9.71165C83.1858 9.71165 83.7753 9.87855 84.2938 10.2124C84.8122 10.5462 85.2188 11.0273 85.5136 11.6559C85.8119 12.2844 85.961 13.0408 85.961 13.9251C85.961 14.8093 85.8137 15.5675 85.5189 16.1996C85.2242 16.8281 84.8193 17.3129 84.3044 17.6538C83.7895 17.9911 83.2018 18.1598 82.5413 18.1598C82.0441 18.1598 81.6375 18.0763 81.3215 17.9094C81.009 17.7425 80.7639 17.5472 80.5864 17.3235C80.4088 17.0998 80.2721 16.9009 80.1762 16.7269H80.0803V21.0682H78.4877ZM80.0484 13.9091C80.0484 14.4844 80.1318 14.9886 80.2987 15.4219C80.4656 15.8551 80.7071 16.1942 81.0232 16.4393C81.3392 16.6808 81.7263 16.8015 82.1844 16.8015C82.6602 16.8015 83.058 16.6754 83.3776 16.4233C83.6972 16.1676 83.9387 15.8214 84.102 15.3846C84.2689 14.9478 84.3524 14.456 84.3524 13.9091C84.3524 13.3693 84.2707 12.8846 84.1073 12.4549C83.9475 12.0252 83.7061 11.6861 83.3829 11.4375C83.0633 11.1889 82.6638 11.0646 82.1844 11.0646C81.7227 11.0646 81.3321 11.1836 81.0125 11.4215C80.6965 11.6594 80.4568 11.9915 80.2934 12.4176C80.1301 12.8437 80.0484 13.3409 80.0484 13.9091ZM87.7455 21.0682V9.81818H89.3009V11.1445H89.434C89.5264 10.9741 89.6595 10.777 89.8335 10.5533C90.0075 10.3295 90.249 10.1342 90.558 9.96733C90.8669 9.79688 91.2753 9.71165 91.7831 9.71165C92.4436 9.71165 93.0331 9.87855 93.5516 10.2124C94.07 10.5462 94.4767 11.0273 94.7714 11.6559C95.0697 12.2844 95.2188 13.0408 95.2188 13.9251C95.2188 14.8093 95.0715 15.5675 94.7767 16.1996C94.482 16.8281 94.0771 17.3129 93.5622 17.6538C93.0473 17.9911 92.4596 18.1598 91.7991 18.1598C91.3019 18.1598 90.8953 18.0763 90.5793 17.9094C90.2668 17.7425 90.0218 17.5472 89.8442 17.3235C89.6666 17.0998 89.5299 16.9009 89.434 16.7269H89.3382V21.0682H87.7455ZM89.3062 13.9091C89.3062 14.4844 89.3896 14.9886 89.5566 15.4219C89.7235 15.8551 89.9649 16.1942 90.281 16.4393C90.597 16.6808 90.9841 16.8015 91.4422 16.8015C91.9181 16.8015 92.3158 16.6754 92.6354 16.4233C92.955 16.1676 93.1965 15.8214 93.3598 15.3846C93.5267 14.9478 93.6102 14.456 93.6102 13.9091C93.6102 13.3693 93.5285 12.8846 93.3651 12.4549C93.2053 12.0252 92.9639 11.6861 92.6407 11.4375C92.3211 11.1889 91.9216 11.0646 91.4422 11.0646C90.9806 11.0646 90.5899 11.1836 90.2703 11.4215C89.9543 11.6594 89.7146 11.9915 89.5512 12.4176C89.3879 12.8437 89.3062 13.3409 89.3062 13.9091ZM97.0033 18V9.81818H98.596V18H97.0033ZM97.8076 8.55575C97.5306 8.55575 97.2927 8.46342 97.0938 8.27876C96.8985 8.09055 96.8009 7.86683 96.8009 7.6076C96.8009 7.34482 96.8985 7.12109 97.0938 6.93643C97.2927 6.74822 97.5306 6.65412 97.8076 6.65412C98.0846 6.65412 98.3208 6.74822 98.5161 6.93643C98.7149 7.12109 98.8144 7.34482 98.8144 7.6076C98.8144 7.86683 98.7149 8.09055 98.5161 8.27876C98.3208 8.46342 98.0846 8.55575 97.8076 8.55575ZM102.331 13.142V18H100.739V9.81818H102.267V11.1499H102.369C102.557 10.7166 102.852 10.3686 103.253 10.1058C103.658 9.84304 104.167 9.71165 104.782 9.71165C105.339 9.71165 105.827 9.82884 106.246 10.0632C106.665 10.294 106.99 10.6385 107.221 11.0966C107.452 11.5547 107.567 12.1211 107.567 12.7958V18H105.975V12.9876C105.975 12.3945 105.82 11.9311 105.511 11.5973C105.202 11.2599 104.778 11.0913 104.238 11.0913C103.869 11.0913 103.54 11.1712 103.253 11.331C102.969 11.4908 102.743 11.7251 102.576 12.0341C102.413 12.3395 102.331 12.7088 102.331 13.142ZM113.134 21.2227C112.484 21.2227 111.925 21.1374 111.456 20.967C110.991 20.7965 110.611 20.571 110.316 20.2905C110.021 20.0135 109.801 19.7116 109.656 19.3849L111.025 18.8203C111.12 18.9695 111.248 19.131 111.408 19.305C111.571 19.479 111.792 19.6282 112.069 19.7525C112.349 19.8768 112.71 19.9389 113.15 19.9389C113.754 19.9389 114.252 19.7933 114.647 19.5021C115.041 19.2109 115.238 18.7493 115.238 18.1172V16.5085H115.137C115.041 16.6825 114.902 16.8761 114.721 17.0891C114.544 17.3022 114.299 17.4869 113.986 17.6431C113.674 17.7994 113.267 17.8775 112.766 17.8775C112.12 17.8775 111.538 17.7266 111.019 17.4247C110.504 17.1193 110.096 16.6701 109.794 16.0771C109.496 15.4805 109.347 14.7472 109.347 13.8771C109.347 13.0071 109.494 12.2614 109.789 11.6399C110.087 11.0185 110.495 10.5426 111.014 10.2124C111.532 9.87855 112.12 9.71165 112.777 9.71165C113.285 9.71165 113.695 9.79688 114.007 9.96733C114.32 10.1342 114.563 10.3295 114.737 10.5533C114.915 10.777 115.051 10.9741 115.147 11.1445H115.265V9.81818H116.825V18.1811C116.825 18.8771 116.662 19.4489 116.335 19.8963C116.009 20.3473 115.566 20.6811 115.009 20.8977C114.455 21.1143 113.83 21.2227 113.134 21.2227ZM113.118 16.5565C113.576 16.5565 113.963 16.4499 114.279 16.2369C114.599 16.0202 114.84 15.7113 115.004 15.31C115.17 14.9052 115.254 14.4205 115.254 13.8558C115.254 13.3054 115.172 12.8207 115.009 12.4016C114.846 11.9826 114.606 11.6559 114.29 11.4215C113.974 11.1836 113.583 11.0646 113.118 11.0646C112.638 11.0646 112.239 11.1889 111.919 11.4375C111.6 11.6825 111.358 12.0163 111.195 12.4389C111.035 12.8615 110.955 13.3338 110.955 13.8558C110.955 14.392 111.037 14.8626 111.2 15.2674C111.364 15.6722 111.605 15.9883 111.925 16.2156C112.248 16.4428 112.646 16.5565 113.118 16.5565Z" fill="white"/>
<path d="M0 29.5C0 27.567 1.567 26 3.5 26H456.5C458.433 26 460 27.567 460 29.5C460 31.433 458.433 33 456.5 33H3.50001C1.56701 33 0 31.433 0 29.5Z" fill="white" fill-opacity="0.3"/>
<path d="M0 29.5C0 27.567 1.567 26 3.5 26H226.5C228.433 26 230 27.567 230 29.5C230 31.433 228.433 33 226.5 33H3.49999C1.567 33 0 31.433 0 29.5Z" fill="white"/>
</svg>
